Whoever wins...we lose.

It may be our planet, but it's their war! The deadliest creatures from the scariest sci-fi movies ever made face off for the first time on film beginning when the discovery of an ancient pyramid buried in Antarctica sends a team of scientists and adventurers to the frozen continent. There, they make an even more terrifying discovery: two unstoppable alien races engaged in the ultimate battle..


Complete name                    : C:UserswinkerDesktopALIEN V PREDATOR IN H.264 BY WINKERavp.mp4
Format                           : MPEG-4
Format profile                   : Base Media / Version 2
Codec ID                         : mp42
File size                        : 900 MiB
Duration                         : 1h 36mn
Overall bit rate                 : 1 301 Kbps
Encoded date                     : UTC 2009-11-30 14:14:15
Tagged date                      : UTC 2009-11-30 18:40:42
Writing application              : HandBrake 0.9.3 2008112300

Video
ID                               : 1
Format                           : AVC
Format/Info                      : Advanced Video Codec
Format profile                   : Main@L4.0
Format settings, CABAC           : Yes
Format settings, ReFrames        : 3 frames
Codec ID                         : avc1
Codec ID/Info                    : Advanced Video Coding
Duration                         : 1h 36mn
Bit rate mode                    : Variable
Bit rate                         : 1 138 Kbps
Width                            : 720 pixels
Height                           : 436 pixels
Display aspect ratio             : 2.35:1
Frame rate mode                  : Variable
Frame rate                       : 25.000 fps
Minimum frame rate               : 12.500 fps
Maximum frame rate               : 89.054 fps
Resolution                       : 24 bits
Colorimetry                      : 4:2:0
Scan type                        : Progressive
Bits/(Pixel*Frame)               : 0.145
Stream size                      : 787 MiB (87%)
Writing library                  : x264 core 65


Audio
ID                               : 2
Format                           : AAC
Format/Info                      : Advanced Audio Codec
Format version                   : Version 4
Format profile                   : LC
Format settings, SBR             : No
Codec ID                         : 40
Duration                         : 1h 36mn
Bit rate mode                    : Variable
Bit rate                         : 160 Kbps
Maximum bit rate                 : 237 Kbps
Channel(s)                       : 2 channels
Channel positions                : L R
Sampling rate                    : 48.0 KHz
Resolution                       : 16 bits
Stream size                      : 111 MiB (12%)
Language                         : English
Encoded date                     : UTC 2009-11-30 14:14:16
Tagged date                      : UTC 2009-11-30 18:40:39

